<svg width="72" height="82" viewBox="0 0 72 82" fill="none" xmlns="http://www.w3.org/2000/svg">
<g id="logo_fr 1" clip-path="url(#clip0_4_4)">
<path id="Vector" d="M72 61.6722V18.2812L36 0L0 18.2812V61.6722H14.925V63.7946H0V82H72V63.7946H57.075V61.6722H72Z" fill="#E51937"/>
<path id="Vector_2" d="M14.9257 61.6722H0V63.7946H14.9257V61.6722Z" fill="white"/>
<path id="Vector_3" d="M72 61.6722H57.0742V63.7946H72V61.6722Z" fill="white"/>
<path id="Vector_4" d="M19.7782 30.5865C19.7782 31.7653 19.5124 32.7722 18.9809 33.6071C18.4494 34.442 17.6842 35.0931 16.6852 35.5604C16.2782 35.7361 15.8491 35.8538 15.4102 35.9101C14.8854 35.9879 14.3558 36.0267 13.8254 36.0261H12.4019L11.3647 41H8.61743L11.4607 27.4977H14.9759C15.8849 27.4977 16.6052 27.5465 17.1367 27.6441C17.6682 27.7417 18.1004 27.9002 18.4334 28.1197C18.8475 28.3686 19.1894 28.7234 19.4249 29.1483C19.6642 29.5885 19.786 30.0842 19.7782 30.5865ZM16.8749 31.1107C16.8749 30.6556 16.7534 30.3059 16.5104 30.0616C16.2674 29.8173 15.8959 29.6945 15.3959 29.6929H13.7459L12.8812 33.8112H14.2259C14.7509 33.8112 15.1639 33.7563 15.4649 33.6465C15.745 33.5507 15.9939 33.3795 16.1849 33.1512C16.4038 32.8803 16.5729 32.5721 16.6844 32.2409C16.8123 31.8782 16.8767 31.4958 16.8749 31.1107Z" fill="white"/>
<path id="Vector_5" d="M25.3501 33.3257C25.1219 33.1938 24.8628 33.1267 24.6001 33.1315C24.3436 33.1315 24.0686 33.2253 23.7751 33.4129C23.4816 33.6005 23.1353 33.9601 22.7363 34.4916L21.3751 41H18.7988L20.1818 34.4332C20.3104 33.9086 20.3782 33.3707 20.3836 32.8303C20.3848 32.439 20.3297 32.0496 20.2201 31.6743L22.6021 30.7216C22.6968 30.9525 22.7645 31.1938 22.8038 31.4407C22.8612 31.735 22.8708 32.0368 22.8323 32.3343C23.2293 31.9124 23.6779 31.5435 24.1673 31.2366C24.5905 30.9673 25.0796 30.8226 25.5796 30.8187C25.8883 30.8023 26.1951 30.8766 26.4631 31.0326L25.3501 33.3257Z" fill="white"/>
<path id="Vector_6" d="M34.1849 34.2579C34.1868 35.1248 34.0704 35.9879 33.8392 36.8226C33.6227 37.6227 33.2646 38.3765 32.7824 39.0475C32.3082 39.7017 31.6945 40.2396 30.9869 40.6215C30.2629 41.0159 29.4144 41.2134 28.4414 41.2139C27.3139 41.2139 26.4494 40.9128 25.8479 40.3105C25.2464 39.7082 24.9464 38.8371 24.9479 37.6972C24.9423 36.7997 25.0817 35.9073 25.3604 35.0552C25.6145 34.2665 26.0048 33.5297 26.5132 32.8789C26.9974 32.2645 27.6057 31.7618 28.2974 31.4043C29.0143 31.0368 29.8083 30.85 30.6119 30.8596C31.7264 30.8596 32.6014 31.1511 33.2369 31.7342C33.8724 32.3173 34.1884 33.1585 34.1849 34.2579ZM31.4189 34.2579C31.4189 33.6754 31.3164 33.2837 31.1114 33.0829C30.9064 32.8822 30.6119 32.781 30.2279 32.7795C29.7924 32.7795 29.4147 32.977 29.0947 33.3719C28.7564 33.7991 28.4873 34.2779 28.2974 34.7905C28.0847 35.3441 27.9265 35.9175 27.8249 36.5025C27.7352 36.9799 27.6851 37.464 27.6749 37.9498C27.6749 38.4292 27.7837 38.7789 28.0012 38.9989C28.2187 39.2189 28.5132 39.3289 28.8847 39.3289C29.2942 39.3289 29.6592 39.1575 29.9797 38.8146C30.3211 38.4376 30.5913 38.0005 30.7769 37.525C30.9926 36.9927 31.1535 36.4394 31.2569 35.8737C31.3604 35.3414 31.4146 34.8004 31.4189 34.2579Z" fill="white"/>
<path id="Vector_7" d="M43.575 34.1222C43.5714 34.6141 43.5265 35.1049 43.4407 35.5892C43.3505 36.12 43.2198 36.6429 43.05 37.1534C42.8834 37.6563 42.6744 38.1438 42.4252 38.6105C42.2115 39.0233 41.9399 39.4027 41.619 39.737C41.1775 40.1856 40.6604 40.5509 40.092 40.8157C39.5227 41.0807 38.903 41.2166 38.2762 41.2139C37.8992 41.2145 37.5228 41.182 37.1512 41.1168C36.8453 41.0721 36.5496 40.9732 36.2775 40.8248C36.2887 40.9354 36.2822 41.0471 36.258 41.1555C36.2325 41.2845 36.207 41.4013 36.183 41.5052L35.5297 44.6153L32.9167 45.276L35.2605 34.1434C35.3675 33.6753 35.4159 33.1954 35.4045 32.715C35.3928 32.3617 35.3314 32.0117 35.2222 31.6758L37.6042 30.7216C37.6545 30.8176 37.693 30.9195 37.719 31.025C37.7592 31.1681 37.7883 31.3142 37.806 31.4619C37.8247 31.6174 37.8412 31.7699 37.854 31.917C37.8668 32.0495 37.8668 32.1829 37.854 32.3153C38.2547 31.9047 38.7144 31.5577 39.2175 31.2859C39.7477 30.9896 40.3442 30.8358 40.95 30.8391C41.795 30.8391 42.445 31.1337 42.9 31.7229C43.355 32.312 43.58 33.1118 43.575 34.1222ZM40.809 34.198C40.809 33.7965 40.7417 33.4986 40.6072 33.3044C40.4727 33.1103 40.239 33.0129 39.906 33.0124C39.586 33.0124 39.2307 33.1323 38.8402 33.372C38.4497 33.6117 38.0687 34.0162 37.6972 34.5856L36.7972 38.8404C36.8722 38.9443 37.047 39.0414 37.3162 39.1317C37.5697 39.2201 37.8357 39.2662 38.1037 39.2682C38.5132 39.2682 38.8397 39.184 39.0832 39.0156C39.3182 38.8554 39.5203 38.6509 39.6787 38.4133C39.8727 38.1113 40.0337 37.7887 40.1587 37.4515C40.3004 37.08 40.4191 36.7 40.5142 36.3136C40.6081 35.9358 40.682 35.5532 40.7355 35.1675C40.7822 34.8472 40.8078 34.524 40.812 34.2003L40.809 34.198Z" fill="white"/>
<path id="Vector_8" d="M50.0129 33.3257C49.7848 33.1936 49.5257 33.1265 49.2629 33.1315C49.0064 33.1315 48.7314 33.2253 48.4379 33.4129C48.1444 33.6005 47.7984 33.9601 47.3999 34.4916L46.0357 41H43.4624L44.8454 34.4332C44.9748 33.9088 45.0425 33.3708 45.0472 32.8303C45.0488 32.439 44.9937 32.0495 44.8837 31.6743L47.2657 30.7216C47.361 30.9523 47.4288 31.1937 47.4674 31.4407C47.5246 31.735 47.5345 32.0367 47.4967 32.3343C47.8935 31.9122 48.3421 31.5433 48.8317 31.2366C49.2546 30.9673 49.7434 30.8226 50.2432 30.8187C50.5521 30.8024 50.8592 30.8767 51.1274 31.0326L50.0129 33.3257Z" fill="white"/>
<path id="Vector_9" d="M52.1999 41H49.6289L51.6839 31.2275L54.3352 30.8194L52.1999 41ZM55.1774 28.3132C55.18 28.5257 55.1406 28.7366 55.0614 28.9334C54.9822 29.1303 54.8648 29.3091 54.7162 29.4594C54.5676 29.6097 54.3908 29.7284 54.1962 29.8085C54.0015 29.8886 53.793 29.9285 53.5829 29.9259C53.3755 29.9292 53.1696 29.8896 52.9779 29.8094C52.7862 29.7291 52.6128 29.61 52.4684 29.4593C52.3184 29.3102 52.2002 29.1315 52.121 28.9344C52.0418 28.7373 52.0033 28.5259 52.0079 28.3132C52.0036 28.0996 52.0432 27.8875 52.1241 27.6902C52.2051 27.4929 52.3256 27.3147 52.4782 27.167C52.6284 27.0152 52.8074 26.8956 53.0045 26.8156C53.2016 26.7356 53.4126 26.6967 53.6249 26.7012C53.831 26.6974 54.0355 26.7369 54.2257 26.8172C54.4159 26.8975 54.5875 27.0168 54.7297 27.1677C54.877 27.3183 54.9928 27.4973 55.0703 27.6941C55.1477 27.8909 55.1852 28.1014 55.1804 28.3132H55.1774Z" fill="white"/>
<path id="Vector_10" d="M63.2091 34.2579C63.2112 35.1248 63.0951 35.9878 62.8641 36.8226C62.647 37.6225 62.289 38.3761 61.8074 39.0475C61.3318 39.7021 60.7166 40.2401 60.0074 40.6215C59.2834 41.0159 58.4349 41.2134 57.4619 41.2139C56.3354 41.2139 55.4711 40.9128 54.8691 40.3105C54.2671 39.7082 53.9674 38.8381 53.9699 37.7003C53.9642 36.8027 54.1038 35.9102 54.3831 35.0582C54.6369 34.2696 55.027 33.5328 55.5351 32.8819C56.0199 32.2664 56.629 31.7626 57.3216 31.4042C58.0388 31.0369 58.8331 30.85 59.6369 30.8596C60.7504 30.8596 61.6254 31.1511 62.2619 31.7342C62.8984 32.3173 63.2141 33.1585 63.2091 34.2579ZM60.4431 34.2579C60.4431 33.6754 60.3409 33.2837 60.1364 33.0829C59.9309 32.8819 59.6369 32.7795 59.2521 32.7795C58.8171 32.7795 58.4394 32.977 58.1189 33.3719C57.7806 33.7991 57.5115 34.2779 57.3216 34.7904C57.1092 35.3441 56.9512 35.9175 56.8499 36.5025C56.7599 36.9798 56.7097 37.464 56.6999 37.9498C56.6999 38.4292 56.8086 38.7789 57.0261 38.9989C57.2436 39.2189 57.5384 39.3289 57.9104 39.3289C58.3199 39.3289 58.6846 39.1575 59.0046 38.8146C59.3463 38.4378 59.6165 38.0007 59.8019 37.525C60.0175 36.9926 60.1786 36.4393 60.2826 35.8737C60.3857 35.3413 60.4394 34.8004 60.4431 34.2579Z" fill="white"/>
<path id="Vector_11" d="M25.8217 47.7936C25.8177 48.3616 25.7548 48.9275 25.6342 49.4822C25.5079 50.0828 25.3323 50.6717 25.1092 51.2428C24.8899 51.8059 24.6269 52.3504 24.3225 52.8714C23.8554 53.6782 23.2049 54.3608 22.425 54.8626C22.1074 55.0622 21.7691 55.2257 21.4162 55.3504C21.0364 55.4821 20.6448 55.5759 20.247 55.6303C19.7823 55.6931 19.314 55.7232 18.8452 55.7206H15.6997L18.306 43.2977H21C21.464 43.2977 21.8777 43.3128 22.2412 43.3432C22.5704 43.3675 22.8967 43.4218 23.2162 43.5055C23.489 43.5789 23.7521 43.6851 24 43.8218C24.2466 43.9603 24.4747 44.1301 24.6787 44.327C25.0759 44.7025 25.3709 45.1751 25.5352 45.6993C25.7262 46.2651 25.8217 46.9633 25.8217 47.7936ZM23.9647 47.9203C23.9709 47.4909 23.9383 47.0618 23.8672 46.6384C23.8098 46.3118 23.6914 45.9993 23.5185 45.7175C23.2565 45.2962 22.9442 45.0224 22.5817 44.8959C22.2192 44.7695 21.7402 44.7063 21.1447 44.7063H19.752L17.7525 54.2763H19.038C20.538 54.2763 21.609 53.8489 22.251 52.9943C22.5511 52.593 22.8086 52.1608 23.019 51.7048C23.2285 51.2541 23.4074 50.7896 23.5545 50.3143C23.6894 49.8829 23.7939 49.4423 23.8672 48.9959C23.9272 48.6405 23.9598 48.2809 23.9647 47.9203Z" fill="#241E20"/>
<path id="Vector_12" d="M26.589 55.7205H24.8752L26.7675 46.7271L28.5352 46.4563L26.589 55.7205ZM29.4097 43.9477C29.4125 44.105 29.3839 44.2612 29.3256 44.407C29.2674 44.5529 29.1807 44.6853 29.0708 44.7966C28.9608 44.9078 28.8298 44.9955 28.6856 45.0544C28.5414 45.1133 28.387 45.1422 28.2315 45.1394C28.0747 45.1428 27.9188 45.1142 27.7732 45.0553C27.6276 44.9964 27.4952 44.9084 27.384 44.7966C27.2707 44.6874 27.1811 44.5555 27.1211 44.4093C27.061 44.2632 27.0318 44.106 27.0352 43.9477C27.0341 43.7883 27.0642 43.6303 27.1238 43.4827C27.1834 43.3352 27.2715 43.2011 27.3827 43.0882C27.494 42.9753 27.6263 42.8859 27.772 42.8251C27.9177 42.7643 28.0739 42.7333 28.2315 42.734C28.3879 42.7306 28.5434 42.7601 28.6879 42.8209C28.8324 42.8816 28.9628 42.9722 29.0707 43.0868C29.1816 43.1998 29.2688 43.3344 29.327 43.4823C29.3853 43.6302 29.4134 43.7885 29.4097 43.9477Z" fill="#241E20"/>
<path id="Vector_13" d="M34.1587 48.2442C34.0686 48.2101 33.9761 48.183 33.8819 48.1631C33.7728 48.1431 33.6621 48.134 33.5512 48.1358C32.7897 48.1358 31.9982 48.7497 31.1767 49.9775L29.9812 55.7198H28.3567L29.6414 49.6165C29.7844 48.8943 29.8559 48.3406 29.8559 47.9552C29.8613 47.6555 29.819 47.3569 29.7307 47.0708L31.2659 46.3881C31.4028 46.7445 31.4695 47.1246 31.4624 47.5069C31.4577 47.798 31.4279 48.0881 31.3732 48.374C31.7453 47.8167 32.2178 47.3352 32.7659 46.9547C33.2774 46.6118 33.7417 46.4404 34.1587 46.4404C34.293 46.4381 34.4272 46.4472 34.5599 46.4677C34.6661 46.4866 34.7707 46.5137 34.8727 46.5489L34.1587 48.2442Z" fill="#241E20"/>
<path id="Vector_14" d="M41.3707 48.8048C41.3734 49.1654 41.3002 49.5225 41.1562 49.8523C41.0151 50.175 40.8083 50.464 40.5494 50.7004C40.1664 51.0625 39.6724 51.3335 39.0674 51.5136C38.4624 51.6936 37.6829 51.7839 36.7289 51.7844C36.5264 51.7844 36.3277 51.7753 36.1289 51.7571C35.9302 51.7389 35.7652 51.7336 35.6249 51.7336C35.5899 51.8903 35.5602 52.0651 35.5357 52.2577C35.5132 52.4313 35.5014 52.6061 35.5004 52.7811C35.5004 53.3945 35.6639 53.852 35.9909 54.1534C36.3179 54.4548 36.7257 54.6052 37.2142 54.6047C37.6829 54.6143 38.1492 54.5348 38.5889 54.3703C39.033 54.1808 39.443 53.9184 39.8024 53.5935L40.3889 54.6161C40.1616 54.8358 39.9134 55.0322 39.6479 55.2024C39.3915 55.3654 39.1193 55.5017 38.8357 55.609C38.5321 55.7221 38.218 55.8037 37.8982 55.8525C37.5231 55.9095 37.1442 55.9367 36.7649 55.9337C35.8719 55.9337 35.1399 55.648 34.5689 55.0765C33.9979 54.5051 33.7122 53.6959 33.7117 52.6491C33.7127 52.1945 33.7577 51.741 33.8459 51.2951C33.9345 50.8392 34.063 50.3922 34.2299 49.9593C34.3946 49.5287 34.604 49.117 34.8547 48.7312C35.0981 48.354 35.3791 48.003 35.6932 47.6836C36.1016 47.2801 36.5797 46.9559 37.1039 46.7271C37.6025 46.5214 38.1367 46.4182 38.6752 46.4237C39.5317 46.4237 40.1952 46.6313 40.6657 47.0464C41.1362 47.4616 41.3712 48.0477 41.3707 48.8048ZM39.7102 48.8806C39.7187 48.5766 39.617 48.2798 39.4244 48.0462C39.2339 47.8181 38.9067 47.7039 38.4427 47.7033C37.9072 47.7033 37.4044 47.9441 36.9344 48.4255C36.4644 48.9069 36.1162 49.5992 35.8897 50.5024C35.9849 50.5146 36.1147 50.5237 36.2827 50.529C36.4507 50.5343 36.6037 50.5381 36.7469 50.5381C37.4369 50.5381 37.9754 50.4875 38.3624 50.3864C38.7074 50.307 39.025 50.1354 39.2819 49.8895C39.4181 49.7594 39.5263 49.6023 39.6 49.4281C39.6736 49.2539 39.7111 49.0663 39.7102 48.8768V48.8806Z" fill="#241E20"/>
<path id="Vector_15" d="M47.6902 48.4802C47.4536 48.2546 47.1724 48.0822 46.8652 47.9742C46.5834 47.8786 46.288 47.83 45.9907 47.8301C45.6673 47.8334 45.3493 47.9137 45.0622 48.0645C44.7587 48.2161 44.4953 48.439 44.2942 48.7145C44.1151 48.9622 43.9625 49.2284 43.839 49.5088C43.6844 49.8494 43.5504 50.1992 43.4377 50.5563C43.3173 50.9346 43.2218 51.3205 43.152 51.7116C43.085 52.081 43.0509 52.4557 43.05 52.8312C43.05 54.0353 43.5617 54.6374 44.5852 54.6374C44.9494 54.6321 45.3079 54.5456 45.6352 54.384C46.0125 54.202 46.3613 53.9648 46.6702 53.6801L47.295 54.7276C46.8575 55.11 46.3636 55.4208 45.831 55.6485C45.3245 55.8462 44.7853 55.9441 44.2425 55.9368C43.231 55.9368 42.481 55.672 41.9925 55.1426C41.504 54.6131 41.26 53.8487 41.2605 52.8494C41.2608 52.3128 41.3237 51.7781 41.448 51.2565C41.569 50.7386 41.7393 50.2339 41.9565 49.7492C42.1617 49.2899 42.4098 48.8515 42.6975 48.44C42.9444 48.0795 43.2351 47.752 43.563 47.4652C44.374 46.7709 45.2915 46.4237 46.3155 46.4237C47.22 46.4237 47.958 46.7066 48.5295 47.2725L47.6902 48.4802Z" fill="#241E20"/>
<path id="Vector_16" d="M53.4382 47.8839H51.5999L50.5282 52.9943C50.4927 53.187 50.4629 53.3584 50.4389 53.5086C50.416 53.6488 50.4042 53.7906 50.4037 53.9327C50.4037 54.2457 50.4719 54.4624 50.6084 54.5827C50.7457 54.7034 50.9684 54.7633 51.2782 54.7633C51.443 54.7648 51.6075 54.7498 51.7694 54.7185C51.9192 54.688 52.0657 54.6425 52.2067 54.5827V55.6121C51.6567 55.8628 51.0602 55.9921 50.4569 55.9914C49.8864 55.9914 49.4579 55.8589 49.1714 55.5939C48.8849 55.3289 48.7422 54.9618 48.7432 54.4925C48.7432 54.2765 48.7492 54.0689 48.7612 53.8697C48.7768 53.6471 48.8127 53.4264 48.8684 53.2105L49.9747 47.8839H48.8864L49.1182 46.6566H50.2252C50.3207 46.2712 50.4189 45.8889 50.5199 45.5096C50.6209 45.1304 50.7249 44.7663 50.8319 44.4173L52.6169 44.0198L52.4249 44.6161C52.3529 44.833 52.2844 45.0586 52.2194 45.2927C52.1534 45.5278 52.0912 45.7622 52.0319 45.9974C51.9727 46.2325 51.9247 46.4525 51.8887 46.6566H54.0637L53.4382 47.8839Z" fill="#241E20"/>
<path id="Vector_17" d="M17.586 63.8439L17.3872 63.3698H16.5622L16.3635 63.8439H15.771L16.6957 61.8391H17.3077L18.1957 63.8439H17.586ZM17.25 63.0361C17.244 63.0247 17.2357 63.0034 17.223 62.9739C17.2102 62.9443 17.1975 62.9101 17.1825 62.8707C17.1675 62.8312 17.1525 62.7903 17.136 62.7486C17.1195 62.7068 17.1067 62.6674 17.0955 62.6333L16.9822 62.2775C16.977 62.2896 16.9695 62.3094 16.9597 62.3382C16.95 62.367 16.9395 62.4004 16.9275 62.4376C16.9155 62.4747 16.902 62.5134 16.887 62.5536C16.872 62.5938 16.8592 62.6295 16.848 62.6636C16.821 62.7395 16.797 62.7994 16.773 62.8532C16.749 62.9071 16.7257 62.967 16.698 63.0345L17.25 63.0361Z" fill="white"/>
<path id="Vector_18" d="M20.6034 63.6884C20.4585 63.7497 20.3077 63.7952 20.1534 63.8242C19.9935 63.8534 19.8313 63.8679 19.6689 63.8675C19.4816 63.8705 19.295 63.845 19.1154 63.7916C18.9648 63.7463 18.8256 63.6687 18.7074 63.564C18.6119 63.4784 18.5352 63.3735 18.4824 63.2561C18.4306 63.1323 18.405 62.999 18.4074 62.8647C18.4074 62.4454 18.6034 62.142 18.9954 61.9544C19.0967 61.905 19.2038 61.8688 19.3141 61.8467C19.435 61.8235 19.5578 61.8123 19.6809 61.8133C19.8434 61.8122 20.0054 61.8316 20.1631 61.8709C20.3089 61.907 20.4485 61.965 20.5771 62.0431L20.2771 62.2935C20.0978 62.1913 19.8949 62.1389 19.6891 62.1417C19.5471 62.1343 19.4061 62.1692 19.2834 62.2419C19.1917 62.3031 19.1243 62.3949 19.0929 62.5013C19.0581 62.6267 19.0417 62.7565 19.0441 62.8867C19.0441 63.1663 19.1144 63.3559 19.2549 63.4556C19.3881 63.5366 19.5421 63.5757 19.6974 63.5678C19.8061 63.5704 19.9144 63.5539 20.0176 63.5193V63.0642H19.5879L19.5129 62.7365H20.6041L20.6034 63.6884Z" fill="white"/>
<path id="Vector_19" d="M21.252 63.844V61.8452H22.857L22.782 62.1729H21.825V62.6363H22.6237V62.964H21.825V63.4988H22.8915V63.844H21.252Z" fill="white"/>
<path id="Vector_20" d="M24.7501 63.844L24.2671 63.0793C24.2266 63.0156 24.1868 62.9519 24.1478 62.8874L24.0361 62.7039C24.0008 62.6454 23.9701 62.5916 23.9431 62.5438C23.9161 62.496 23.8996 62.4619 23.8861 62.4346C23.8913 62.471 23.8958 62.5104 23.8981 62.5582C23.9003 62.606 23.9041 62.6553 23.9063 62.7054C23.9086 62.7554 23.9116 62.804 23.9123 62.8571C23.9131 62.9102 23.9123 62.9511 23.9123 62.9936L23.9288 63.8478H23.3813V61.8452H24.0098L24.5491 62.6447C24.6196 62.7524 24.6811 62.8548 24.7336 62.9542C24.7861 63.0535 24.8273 63.1385 24.8573 63.2113C24.8513 63.1726 24.8461 63.1294 24.8408 63.0801C24.8356 63.0308 24.8311 62.9815 24.8266 62.9284C24.8221 62.8753 24.8191 62.829 24.8168 62.782C24.8146 62.735 24.8123 62.694 24.8123 62.6599L24.8003 61.8429H25.3396V63.8417L24.7501 63.844Z" fill="white"/>
<path id="Vector_21" d="M27.9502 63.6914C27.8393 63.7557 27.7198 63.8038 27.5955 63.8341C27.4549 63.8656 27.3112 63.8807 27.1672 63.8788C26.7807 63.8788 26.474 63.7868 26.247 63.6027C26.1377 63.5194 26.0498 63.4108 25.9906 63.2861C25.9313 63.1614 25.9025 63.0242 25.9065 62.8859C25.8997 62.6631 25.9667 62.4444 26.097 62.2646C26.2153 62.1136 26.3704 61.9963 26.547 61.924C26.7462 61.8408 26.96 61.7992 27.1755 61.8019C27.3111 61.8014 27.4464 61.8159 27.579 61.8451C27.6879 61.8664 27.7928 61.9053 27.8895 61.9604L27.6337 62.2335C27.495 62.1596 27.3405 62.1211 27.1837 62.1212C27.0913 62.1207 26.9994 62.1364 26.9122 62.1675C26.8344 62.1924 26.7635 62.2356 26.7052 62.2934C26.6017 62.4052 26.55 62.5769 26.55 62.8085C26.5477 62.9188 26.5565 63.0291 26.5762 63.1377C26.5908 63.2124 26.6221 63.2827 26.6677 63.3433C26.784 63.495 26.9677 63.5708 27.2107 63.5708C27.2921 63.5714 27.3732 63.5617 27.4522 63.542C27.5369 63.52 27.6181 63.4863 27.6937 63.4419L27.9502 63.6914Z" fill="white"/>
<path id="Vector_22" d="M28.4041 63.844V61.8452H30.0098L29.9348 62.1729H28.9801V62.6363H29.7788V62.964H28.9801V63.4988H30.0466V63.844H28.4041Z" fill="white"/>
<path id="Vector_23" d="M31.4858 63.844V61.8452H32.0776V63.844H31.4858Z" fill="white"/>
<path id="Vector_24" d="M35.0415 63.8439L34.9365 62.7767C34.9305 62.7137 34.926 62.656 34.9223 62.6029C34.9185 62.5498 34.9163 62.4967 34.9163 62.4436C34.8998 62.5005 34.884 62.5514 34.869 62.5954C34.854 62.6394 34.8353 62.6902 34.8105 62.7516L34.3643 63.8447H33.882L33.4808 62.7949C33.462 62.7448 33.441 62.6887 33.42 62.6249C33.399 62.5612 33.3803 62.5066 33.3668 62.4527C33.3668 62.5081 33.3668 62.5643 33.3593 62.6196C33.3518 62.675 33.3525 62.7395 33.3465 62.8009L33.2498 63.8447H32.6858L32.9498 61.8459H33.675L34.044 62.8464C34.0575 62.8836 34.0695 62.9155 34.0785 62.9428C34.0875 62.9701 34.0965 62.9966 34.1033 63.0186L34.1235 63.0892C34.1303 63.1119 34.1363 63.1362 34.1415 63.1612C34.1687 63.0508 34.2025 62.9421 34.2428 62.8358L34.6238 61.8436H35.346L35.5973 63.8424L35.0415 63.8439Z" fill="white"/>
<path id="Vector_25" d="M38.4803 63.844L38.3745 62.7767C38.3693 62.7137 38.364 62.6561 38.3603 62.603C38.3565 62.5499 38.3543 62.4968 38.3543 62.4437C38.3378 62.5006 38.3228 62.5514 38.3078 62.5954C38.2928 62.6394 38.2733 62.6902 38.2485 62.7516L37.8 63.844H37.32L36.9188 62.7941C36.9 62.7441 36.8798 62.6879 36.858 62.6242C36.8363 62.5605 36.819 62.5059 36.8055 62.452C36.8055 62.5074 36.8055 62.5635 36.7973 62.6189C36.789 62.6743 36.7905 62.7388 36.7853 62.8002L36.6878 63.844H36.1245L36.3878 61.8452H37.1138L37.4828 62.8457L37.5173 62.942C37.5263 62.9701 37.5345 62.9959 37.5413 63.0179L37.5615 63.0884C37.5683 63.1112 37.5743 63.1355 37.5795 63.1605C37.6073 63.0502 37.6414 62.9415 37.6815 62.8351L38.0625 61.8429H38.784L39.0353 63.8417L38.4803 63.844Z" fill="white"/>
<path id="Vector_26" d="M41.9549 62.8343C41.9607 63.0409 41.9047 63.2444 41.7944 63.4184C41.6805 63.5872 41.5167 63.7151 41.3264 63.784C41.2432 63.8158 41.157 63.8392 41.0692 63.8538C40.7878 63.894 40.5013 63.8791 40.2254 63.8098C40.0845 63.7679 39.955 63.694 39.8467 63.5936C39.7421 63.5016 39.6588 63.3875 39.6026 63.2593C39.5465 63.1311 39.519 62.992 39.5219 62.8518C39.5178 62.649 39.576 62.45 39.6884 62.2821C39.8045 62.1146 39.9687 61.9872 40.1587 61.9172C40.2475 61.8821 40.3398 61.8567 40.4339 61.8414C40.5359 61.8252 40.639 61.8171 40.7422 61.8171C40.913 61.8148 41.0832 61.8386 41.2469 61.8876C41.3866 61.929 41.5168 61.9979 41.6302 62.0902C41.7341 62.1762 41.8168 62.2855 41.8717 62.4095C41.9293 62.5434 41.9577 62.6883 41.9549 62.8343ZM41.3017 62.8457C41.3027 62.7564 41.2967 62.6671 41.2837 62.5787C41.274 62.5113 41.2556 62.4455 41.2289 62.383C41.2153 62.3534 41.1976 62.3258 41.1764 62.3011C41.1485 62.2687 41.1156 62.241 41.0789 62.2191C41.0319 62.1914 40.9815 62.17 40.9289 62.1554C40.8642 62.1374 40.7973 62.1287 40.7302 62.1296C40.6417 62.1285 40.5538 62.1447 40.4714 62.1774C40.4015 62.2028 40.3397 62.2472 40.2929 62.3056C40.1977 62.4315 40.1504 62.6143 40.1504 62.8518C40.1504 63.1992 40.2344 63.4149 40.4024 63.4988C40.5074 63.5485 40.6226 63.5722 40.7384 63.5679C40.9357 63.5679 41.0782 63.5117 41.1667 63.3979C41.2552 63.2842 41.3017 63.1013 41.3017 62.8457Z" fill="white"/>
<path id="Vector_27" d="M44.5094 63.2864C44.5093 63.3557 44.4931 63.4241 44.4622 63.4859C44.4294 63.553 44.3825 63.612 44.3249 63.6589C44.2563 63.714 44.1786 63.7564 44.0954 63.784C43.9908 63.8189 43.8815 63.8373 43.7714 63.8386H43.6154C43.5569 63.8386 43.4887 63.8386 43.4107 63.8386H42.5249V61.8452H43.4774C43.5639 61.8452 43.6404 61.8474 43.7069 61.852C43.7681 61.8563 43.829 61.8646 43.8892 61.877C43.9404 61.8871 43.9906 61.9018 44.0392 61.921C44.0848 61.94 44.129 61.9626 44.1712 61.9885C44.3252 62.0846 44.4022 62.2037 44.4022 62.3458C44.4022 62.4135 44.3846 62.4799 44.3511 62.5385C44.3177 62.5971 44.2696 62.6457 44.2117 62.6796C44.1764 62.7031 44.139 62.7232 44.0999 62.7395C44.051 62.7575 44.0009 62.772 43.9499 62.7827C44.0995 62.8074 44.2407 62.8692 44.3609 62.9625C44.4086 63.0013 44.4469 63.0507 44.4727 63.1069C44.4984 63.1631 44.511 63.2245 44.5094 63.2864ZM43.8074 62.4148C43.8068 62.3708 43.792 62.3283 43.7654 62.2935C43.7352 62.2541 43.693 62.2258 43.6454 62.2131C43.6162 62.2044 43.5864 62.1983 43.5562 62.1948C43.5079 62.1889 43.4593 62.1864 43.4107 62.1873H43.0859V62.6424H43.4182C43.4697 62.6434 43.5213 62.6413 43.5727 62.6363C43.6031 62.6338 43.6332 62.6272 43.6619 62.6166C43.7026 62.5987 43.7376 62.5699 43.7632 62.5332C43.7903 62.4996 43.8058 62.4581 43.8074 62.4148ZM43.8682 63.2371C43.8674 63.1815 43.8475 63.1278 43.8119 63.0854C43.7733 63.0395 43.7204 63.0082 43.6619 62.9966C43.6306 62.9894 43.5987 62.9846 43.5667 62.9822C43.5382 62.9822 43.4969 62.9822 43.4429 62.9822H43.0897V63.5231H43.4587C43.5103 63.5237 43.562 63.5205 43.6132 63.5132C43.6515 63.5079 43.6886 63.4956 43.7227 63.4768C43.7655 63.4541 43.8017 63.4203 43.8277 63.379C43.8553 63.3371 43.8695 63.2875 43.8682 63.2371Z" fill="white"/>
<path id="Vector_28" d="M45.075 63.844V61.8452H45.6675V63.844H45.075Z" fill="white"/>
<path id="Vector_29" d="M47.8499 63.844H46.3582V61.8452H46.9379V63.514H47.9474L47.8499 63.844Z" fill="white"/>
<path id="Vector_30" d="M48.375 63.844V61.8452H48.9668V63.844H48.375Z" fill="white"/>
<path id="Vector_31" d="M49.6545 63.844V61.8452H51.2603L51.1853 62.1728H50.2305V62.6363H51.0293V62.964H50.2305V63.4988H51.3V63.844H49.6545ZM50.733 61.7814L49.8248 61.4939L50.0603 61.1951L50.8995 61.569L50.733 61.7814Z" fill="white"/>
<path id="Vector_32" d="M53.1578 63.8439L53.0865 63.7574L53.0258 63.6816C53.0055 63.6573 52.9853 63.6323 52.965 63.6057C52.9448 63.5792 52.9215 63.5481 52.8945 63.5139C52.824 63.4237 52.7648 63.3493 52.7175 63.2864C52.6703 63.2234 52.629 63.1794 52.5945 63.143C52.5653 63.1148 52.5337 63.0891 52.5 63.0664C52.4772 63.0494 52.4519 63.0361 52.425 63.027C52.3961 63.0178 52.3661 63.0122 52.3358 63.0103V63.8447H51.78V61.8451H52.83C52.9441 61.8438 53.0579 61.8578 53.1683 61.8868C53.2616 61.9112 53.3501 61.9515 53.43 62.0059C53.4995 62.0539 53.557 62.1175 53.598 62.1918C53.6374 62.2653 53.6576 62.3478 53.6565 62.4315C53.657 62.5049 53.6406 62.5773 53.6085 62.6431C53.5755 62.7096 53.5299 62.7689 53.4743 62.8176C53.4146 62.8688 53.3466 62.9091 53.2733 62.9367C53.1949 62.9668 53.1119 62.9827 53.028 62.9837C53.0517 62.9954 53.0743 63.0091 53.0955 63.0247C53.1098 63.0361 53.127 63.0505 53.1458 63.0672C53.1787 63.0967 53.21 63.1281 53.2395 63.1612C53.277 63.2022 53.3183 63.2485 53.3625 63.2993L53.5005 63.4571C53.5478 63.5117 53.5928 63.5648 53.6348 63.6156C53.6768 63.6664 53.7143 63.7119 53.748 63.7521C53.7818 63.7923 53.8065 63.8227 53.823 63.8439H53.1578ZM53.0648 62.4406C53.0673 62.3814 53.0479 62.3235 53.0103 62.2781C52.9726 62.2327 52.9196 62.2033 52.8615 62.1956C52.8185 62.1845 52.7746 62.1773 52.7303 62.1743C52.6748 62.1698 52.6118 62.1675 52.5413 62.1675H52.3388V62.7076H52.5293C52.6215 62.7094 52.7137 62.7046 52.8053 62.6932C52.8583 62.687 52.9095 62.6694 52.9553 62.6416C52.9895 62.6209 53.0177 62.5914 53.0369 62.5561C53.0562 62.5208 53.0658 62.4809 53.0648 62.4406Z" fill="white"/>
<path id="Vector_33" d="M54.2729 63.844V61.8452H55.8787L55.8037 62.1729H54.8482V62.6363H55.6499V62.964H54.8482V63.4988H55.9147V63.844H54.2729Z" fill="white"/>
</g>
<defs>
<clipPath id="clip0_4_4">
<rect width="72" height="82" fill="white"/>
</clipPath>
</defs>
</svg>
